<?xml version="1.0" standalone="no"?>
<!DOCTYPE svg PUBLIC "-//W3C//DTD SVG 20010904//EN"
 "http://www.w3.org/TR/2001/REC-SVG-20010904/DTD/svg10.dtd">
<svg version="1.0" xmlns="http://www.w3.org/2000/svg"
 width="700.000000pt" height="700.000000pt" viewBox="0 0 700.000000 700.000000"
 preserveAspectRatio="xMidYMid meet">
<metadata>
Created by potrace 1.14, written by Peter Selinger 2001-2017
</metadata>
<g transform="translate(0.000000,700.000000) scale(0.100000,-0.100000)"
fill="#000000" stroke="none">
<path d="M1507 6903 c-17 -270 -134 -527 -332 -728 -114 -116 -191 -173 -320
-238 -145 -73 -353 -127 -488 -127 l-38 0 4 -797 c4 -869 5 -894 67 -1261 215
-1275 945 -2425 2016 -3177 272 -191 647 -395 954 -519 l134 -54 56 20 c115
43 311 132 475 217 1301 670 2250 1923 2539 3351 91 452 99 572 100 1470 l1
755 -100 7 c-145 10 -279 47 -420 118 -134 66 -207 118 -309 217 -206 203
-329 466 -351 752 l-8 91 -1987 0 -1987 0 -6 -97z m3200 -2405 c156 -156 283
-287 283 -293 0 -5 -435 -445 -967 -977 l-968 -968 -527 527 -528 528 292 292
293 293 235 -235 235 -235 675 675 c371 371 679 675 685 675 5 0 137 -127 292
-282z"/>
</g>
</svg>
